<?xml version="1.0" encoding="UTF-8"?>
<svg id="Layer_2" data-name="Layer 2" xmlns="http://www.w3.org/2000/svg" xmlns:xlink="http://www.w3.org/1999/xlink" viewBox="0 0 598.75 212.87">
  <defs>
    <style>
      .cls-1 {
        font-size: 50.35px;
      }

      .cls-1, .cls-2 {
        fill: #304b82;
      }

      .cls-3 {
        fill: url(#linear-gradient);
      }

      .cls-3, .cls-4, .cls-5, .cls-6, .cls-7, .cls-8, .cls-9, .cls-10, .cls-11 {
        stroke-width: 0px;
      }

      .cls-12 {
        letter-spacing: .38em;
      }

      .cls-4 {
        fill: url(#linear-gradient-6);
      }

      .cls-13 {
        font-family: Montserrat-Bold, Montserrat;
        font-weight: 700;
      }

      .cls-13, .cls-14 {
        letter-spacing: .11em;
      }

      .cls-15 {
        letter-spacing: .36em;
      }

      .cls-14, .cls-16, .cls-17 {
        font-family: Montserrat-Light, Montserrat;
        font-weight: 300;
      }

      .cls-5 {
        fill: url(#linear-gradient-5);
      }

      .cls-18 {
        letter-spacing: .37em;
      }

      .cls-16 {
        letter-spacing: .11em;
      }

      .cls-6 {
        fill: url(#linear-gradient-2);
      }

      .cls-7 {
        fill: url(#linear-gradient-7);
      }

      .cls-8 {
        fill: url(#linear-gradient-3);
      }

      .cls-2 {
        font-family: Montserrat-Regular, Montserrat;
        font-size: 19.65px;
      }

      .cls-9 {
        fill: url(#linear-gradient-9);
      }

      .cls-10 {
        fill: url(#linear-gradient-8);
      }

      .cls-17 {
        letter-spacing: .12em;
      }

      .cls-11 {
        fill: url(#linear-gradient-4);
      }
    </style>
    <linearGradient id="linear-gradient" x1="127.57" y1="185.29" x2="89.51" y2="63.32" gradientUnits="userSpaceOnUse">
      <stop offset="0" stop-color="#8afcff"/>
      <stop offset="1" stop-color="#6eb7e5"/>
    </linearGradient>
    <linearGradient id="linear-gradient-2" x1="87.8" y1="92.61" x2="66.33" y2="179.46" gradientUnits="userSpaceOnUse">
      <stop offset="0" stop-color="#17266b"/>
      <stop offset="1" stop-color="#4984c4"/>
    </linearGradient>
    <linearGradient id="linear-gradient-3" x1="44.11" y1="-12.63" x2="129.54" y2="134.29" xlink:href="#linear-gradient-2"/>
    <linearGradient id="linear-gradient-4" x1="45.98" y1="-13.67" x2="131.34" y2="133.15" xlink:href="#linear-gradient-2"/>
    <linearGradient id="linear-gradient-5" x1="83.58" y1="91.58" x2="62.12" y2="178.42" xlink:href="#linear-gradient-2"/>
    <linearGradient id="linear-gradient-6" x1="115.54" y1="93.91" x2="192.63" y2="122.7" xlink:href="#linear-gradient-2"/>
    <linearGradient id="linear-gradient-7" x1="116.59" y1="91.13" x2="193.67" y2="119.92" xlink:href="#linear-gradient-2"/>
    <linearGradient id="linear-gradient-8" x1="117.81" y1="87.86" x2="194.89" y2="116.64" xlink:href="#linear-gradient-2"/>
    <linearGradient id="linear-gradient-9" x1="79.35" y1="90.5" x2="57.88" y2="177.37" xlink:href="#linear-gradient-2"/>
  </defs>
  <g id="OBJECTS">
    <g>
      <g>
        <text class="cls-1" transform="translate(265.78 120.25)"><tspan class="cls-13" x="0" y="0">OMNI</tspan><tspan class="cls-14" x="170.94" y="0">T</tspan><tspan class="cls-16" x="205.08" y="0">E</tspan><tspan class="cls-17" x="244.36" y="0">CH</tspan></text>
        <text class="cls-2" transform="translate(389.79 153.05)"><tspan class="cls-12" x="0" y="0">A</tspan><tspan class="cls-15" x="21.46" y="0">L</tspan><tspan class="cls-18" x="40.12" y="0">GO</tspan></text>
      </g>
      <g>
        <path class="cls-3" d="m134.91,148.87l23.61,50.64c-2.12,1.17-4.29,2.28-6.52,3.32-2.23,1.05-4.49,2-6.74,2.88l-23.58-50.56-33.6-72.07L1.41,123.5c-.85-5.16-1.33-10.32-1.41-15.49L177.07,25.45c3.89,3.38,7.56,7.07,10.94,11.04l-86.67,40.42,33.57,71.97Z"/>
        <path class="cls-6" d="m107.67,159.69l-26.65-57.16-62.6,29.18c-2.17-2.68-5.95-3.68-9.22-2.15-2.05.95-3.48,2.69-4.09,4.72-.54,1.76-.46,3.7.38,5.49,1.79,3.84,6.36,5.52,10.2,3.73.23-.1.44-.23.66-.35,2.84-1.68,4.24-4.96,3.61-8.12l59.28-27.64,24.78,53.15,23.46,50.31c1.22-.23,2.45-.49,3.68-.79l-23.5-50.38Zm-93.52-19.52c-.46.21-.94.33-1.41.36-1.61.11-3.2-.76-3.94-2.32-.16-.34-.26-.69-.31-1.05-.3-1.73.59-3.52,2.27-4.29,2-.94,4.4-.07,5.34,1.94.95,2.02.07,4.42-1.94,5.36Z"/>
        <path class="cls-8" d="m160.27,15.13c-1.79-3.84-6.38-5.5-10.22-3.71-3.25,1.53-4.93,5.06-4.26,8.45L15.84,80.46c-2.17-2.69-5.95-3.68-9.22-2.17-3.85,1.79-5.5,6.38-3.71,10.22,1.79,3.84,6.38,5.5,10.2,3.71,3.27-1.51,4.95-5.06,4.27-8.45L147.33,23.18c2.17,2.69,5.95,3.68,9.22,2.17,3.83-1.79,5.5-6.38,3.71-10.22ZM11.57,88.9c-2,.94-4.4.07-5.34-1.94-.95-2.02-.07-4.42,1.94-5.36,2-.94,4.4-.07,5.36,1.96.94,2,.07,4.4-1.96,5.34ZM155.01,22.03c-2.02.94-4.42.07-5.36-1.96-.94-2-.07-4.4,1.94-5.34,2.02-.94,4.42-.07,5.36,1.94.94,2.02.07,4.42-1.94,5.36Z"/>
        <path class="cls-11" d="m126.93,4.45c-1.79-3.84-6.36-5.52-10.2-3.73-3.27,1.53-4.95,5.08-4.27,8.46L29.07,48.06c-2.17-2.68-5.95-3.68-9.22-2.15-3.84,1.79-5.5,6.38-3.71,10.2,1.79,3.84,6.38,5.5,10.2,3.71,3.27-1.51,4.95-5.06,4.27-8.45L114,12.5c2.17,2.68,5.95,3.68,9.22,2.15,3.84-1.79,5.5-6.38,3.71-10.2ZM24.79,56.52c-2,.94-4.4.07-5.34-1.96-.94-2-.07-4.4,1.94-5.34,2.02-.95,4.42-.07,5.36,1.94.94,2.02.07,4.42-1.96,5.36ZM121.67,11.33c-2,.94-4.4.07-5.36-1.94-.94-2.02-.07-4.42,1.96-5.36,2-.94,4.4-.07,5.36,1.96.94,2,.05,4.4-1.96,5.34Z"/>
        <path class="cls-5" d="m83.01,163.04l-13.49-28.92-38.1,17.76-3.04,1.41c-2.17-2.69-5.95-3.68-9.22-2.17-3.83,1.79-5.5,6.38-3.71,10.22,1.79,3.84,6.38,5.5,10.22,3.71,3.25-1.53,4.93-5.06,4.26-8.45l5.88-2.74,31.94-14.89,11.22,24.07,23.18,49.7c1.36.08,2.71.12,4.09.12l-23.23-49.83Zm-58.9-1.3c-2,.94-4.4.07-5.34-1.94-.94-2.02-.07-4.42,1.94-5.36,2.02-.94,4.42-.07,5.36,1.96.94,2,.07,4.4-1.96,5.34Z"/>
        <path class="cls-4" d="m197.83,50.08c-1.02-2.2-2.97-3.7-5.16-4.24-1.64-.39-3.4-.26-5.04.51-3.27,1.53-4.95,5.06-4.27,8.46l-62.57,29.16,26.54,56.92,23.61,50.64c1-.76,2-1.53,2.96-2.32l-23.59-50.61-24.65-52.86,59.25-27.64c1.77,2.2,4.62,3.27,7.39,2.74.62-.1,1.23-.3,1.82-.57,3.84-1.79,5.5-6.38,3.71-10.2Zm-5.24,6.87l-.02.02c-2.02.94-4.42.07-5.36-1.94-.94-2.02-.07-4.42,1.96-5.36,1.18-.56,2.51-.48,3.6.12.74.39,1.36,1.02,1.74,1.84.94,2,.07,4.39-1.92,5.32Z"/>
        <path class="cls-7" d="m207.95,71.58c-1.79-3.84-6.38-5.5-10.22-3.71-3.27,1.51-4.93,5.06-4.27,8.45l-4.17,1.94-36.9,17.22,13.24,28.39,23.48,50.36c.87-1.05,1.73-2.1,2.55-3.2l-23.45-50.26-10.96-23.51,30.76-14.34,7-3.27c2.17,2.68,5.96,3.68,9.22,2.15,3.84-1.79,5.52-6.36,3.73-10.2Zm-5.27,6.9c-2,.94-4.4.05-5.34-1.96-.94-2-.07-4.4,1.94-5.36,2.02-.94,4.42-.05,5.36,1.96.94,2,.07,4.4-1.96,5.36Z"/>
        <path class="cls-10" d="m212.76,95.57c-1.79-3.84-6.38-5.52-10.22-3.73-3.27,1.53-4.93,5.08-4.27,8.46l-14.31,6.67,20.16,43.21c.67-1.48,1.33-2.99,1.92-4.52l-17.22-36.92,10.99-5.13c2.17,2.68,5.96,3.68,9.22,2.15,3.84-1.79,5.5-6.38,3.73-10.2Zm-5.27,6.88c-2,.94-4.4.07-5.34-1.94-.94-2.02-.07-4.42,1.94-5.36,2.02-.94,4.42-.07,5.36,1.96.94,2,.07,4.4-1.96,5.34Z"/>
        <path class="cls-9" d="m58.02,165.7l-14.31,6.67c-2.17-2.68-5.95-3.68-9.22-2.15-3.84,1.79-5.5,6.38-3.71,10.2,1.79,3.84,6.38,5.5,10.2,3.71,3.27-1.51,4.95-5.06,4.27-8.45l10.99-5.13,17.22,36.94c1.56.53,3.14.99,4.72,1.43l-20.16-43.23Zm-18.58,15.13c-2,.94-4.4.07-5.34-1.96-.94-2-.07-4.4,1.94-5.34,2.02-.95,4.42-.07,5.36,1.94.94,2,.07,4.42-1.96,5.36Z"/>
      </g>
    </g>
  </g>
</svg>